<svg xmlns="http://www.w3.org/2000/svg" viewBox="0 0 32 32" width="32" height="32">
<rect width="32" height="32" rx="7" fill="#FAFAF7"/>
<g transform="translate(4,1) scale(0.75)">
<path d="M16 38L16 22" stroke="#B8860B" stroke-width="1.8" stroke-linecap="round"/>
<path d="M16 2C16 2,3 9,3 20C3 28,8.5 33,16 33C23.5 33,29 28,29 20C29 9,16 2,16 2Z" stroke="#B8860B" stroke-width="1.6" fill="none"/>
<path d="M16 7L16 30" stroke="#B8860B" stroke-width="0.9" stroke-linecap="round"/>
<path d="M16 14C12.5 17,8 18,6 19" stroke="#B8860B" stroke-width="0.8" fill="none" stroke-linecap="round"/>
<path d="M16 14C19.5 17,24 18,26 19" stroke="#B8860B" stroke-width="0.8" fill="none" stroke-linecap="round"/>
<path d="M16 21C12.5 24,9 25,7 26" stroke="#B8860B" stroke-width="0.8" fill="none" stroke-linecap="round"/>
<path d="M16 21C19.5 24,23 25,25 26" stroke="#B8860B" stroke-width="0.8" fill="none" stroke-linecap="round"/>
</g>
</svg>
