<svg xmlns="http://www.w3.org/2000/svg" viewBox="0 0 32 32" width="32" height="32">
  <defs>
    <radialGradient id="w" cx="35%" cy="30%" r="75%">
      <stop offset="0%" stop-color="#D4883A"/>
      <stop offset="100%" stop-color="#8B5018"/>
    </radialGradient>
  </defs>
  <g transform="rotate(-12,16,16)">
    <path d="M5 14 Q4 8 9 5 Q14 1 21 2 Q28 3 29 9 Q30 15 27 20 Q24 25 19 27 Q14 28 10 25 Q5 22 5 14Z" fill="url(#w)"/>
    <!-- Thumb hole -->
    <ellipse cx="12" cy="22" rx="2.8" ry="3.5" fill="#6B3A10"/>
    <ellipse cx="12" cy="22" rx="2" ry="2.7" fill="#4A2508"/>
    <!-- Paint blobs -->
    <ellipse cx="13" cy="6"  rx="3" ry="2.2" fill="#8B4AC8"/>
    <ellipse cx="20" cy="5"  rx="2.8" ry="2" fill="#2A68C0"/>
    <ellipse cx="26" cy="11" rx="2.6" ry="2.2" fill="#D03050"/>
    <ellipse cx="26" cy="18" rx="2.5" ry="2" fill="#38A050"/>
    <ellipse cx="21" cy="24" rx="2.8" ry="2" fill="#D0920A"/>
    <ellipse cx="13" cy="10" rx="2.5" ry="1.8" fill="#E0D8C8"/>
  </g>
</svg>
