<svg xmlns="http://www.w3.org/2000/svg" viewBox="0 0 1024 1024" width="1024" height="1024">
<rect width="1024" height="1024" rx="220" fill="#FAFAF7"/>
<g transform="translate(512,512) scale(14)">
<path d="M0 -30 L0 22" stroke="#1D1D1F" stroke-width="2.5" stroke-linecap="round"/>
<path d="M0 -20 C-5 -26,-14 -25,-15 -20 C-16 -15,-11 -14,-6 -17" stroke="#B8860B" stroke-width="2" fill="none" stroke-linecap="round"/>
<path d="M0 -20 C5 -26,14 -25,15 -20 C16 -15,11 -14,6 -17" stroke="#B8860B" stroke-width="2" fill="none" stroke-linecap="round"/>
<path d="M0 -10 C-6 -16,-14 -14,-14 -9 C-14 -4,-9 -4,-4 -7" stroke="#DAA520" stroke-width="2" fill="none" stroke-linecap="round"/>
<path d="M0 -10 C6 -16,14 -14,14 -9 C14 -4,9 -4,4 -7" stroke="#DAA520" stroke-width="2" fill="none" stroke-linecap="round"/>
</g>
</svg>
